# xmcd
#
# Track frame offsets: 
#        150
#        32554
#        62721
#
# Disc length: 1298 seconds
#
# Revision: 0
# Processed by: cddbd v1.5.1PL0 Copyright (c) Steve Scherf et al.
# Submitted via: ExactAudioCopy v0.95a3
#
DISCID=1e051003
DTITLE=The River - Different Ways to be Haunted
DYEAR=2005
DGENRE=Doom
TTITLE0=A Close Study
TTITLE1=White Library
TTITLE2=Broken Window
EXTD=
EXTT0=
EXTT1=
EXTT2=
PLAYORDER=
